<?xml version="1.0" encoding="UTF-8"?><svg id="Layer_1" xmlns="http://www.w3.org/2000/svg" viewBox="0 0 98.94 122.88"><defs><style>.cls-1{fill:#fff;}.cls-1,.cls-2{stroke-width:0px;}.cls-2{fill:#f40407;}</style></defs><path class="cls-2" d="m63.49,2.71c11.59-6.04,25.94-1.64,32.04,9.83,6.1,11.47,1.65,25.66-9.94,31.7l-9.53,5.01c8.21.3,16.04,4.81,20.14,12.52,6.1,11.47,1.66,25.66-9.94,31.7l-50.82,26.7c-11.59,6.04-25.94,1.64-32.04-9.83-6.1-11.47-1.65-25.66,9.94-31.7l9.53-5.01c-8.21-.3-16.04-4.81-20.14-12.52-6.1-11.47-1.65-25.66,9.94-31.7,0,0,50.82-26.7,50.82-26.7Zm-27.43,39.82l30.76,18.99-30.76,18.9s0-37.89,0-37.89Z"/><path class="cls-1" d="m36.06,42.53v37.89l30.76-18.9-30.76-18.99Z"/></svg>